<svg width="16" height="16" viewBox="0 0 16 16" fill="none" xmlns="http://www.w3.org/2000/svg">
<g clip-path="url(#clip0_1_43)">
<path d="M0.449281 5.84064C1.05019 5.23973 2.02738 5.23973 2.62829 5.84064L6.53142 9.74376C7.34574 10.5581 8.65988 10.5581 9.46859 9.74376L13.3717 5.84064C13.9726 5.23973 14.9498 5.23973 15.5507 5.84064C16.1516 6.44155 16.1516 7.41874 15.5507 8.01965L8.94068 14.6297C8.42401 15.1464 7.58161 15.1464 7.06494 14.6297L0.449281 8.01965C-0.151632 7.41874 -0.151632 6.44155 0.449281 5.84064Z" fill="#FFDE00"/>
<path d="M3.51001 0.449281C4.11092 -0.151632 5.08811 -0.151632 5.68902 0.449281L6.94701 1.70727C7.53107 2.29133 8.47456 2.29133 9.05862 1.70727L10.3166 0.449281C10.9175 -0.151632 11.8947 -0.151632 12.4956 0.449281C13.0965 1.05019 13.0965 2.02738 12.4956 2.62829L8.9463 6.17761C8.42963 6.69428 7.58723 6.69428 7.07056 6.17761L3.51001 2.62829C2.9091 2.02738 2.9091 1.05019 3.51001 0.449281Z" fill="#FFDE00"/>
</g>
<defs>
<clipPath id="clip0_1_43">
<rect width="16" height="15.0172" fill="white"/>
</clipPath>
</defs>
</svg>
