<svg width="29" height="32" viewBox="0 0 29 32" fill="none" xmlns="http://www.w3.org/2000/svg">
<g clip-path="url(#clip0_1_11)">
<path d="M28.4044 16.7944C25.9906 16.3718 25.2153 16.1971 26.2097 17.5665C26.4068 17.8347 26.3718 17.9728 26.0345 18.0785C25.5351 18.2369 25.0488 18.4482 24.545 18.5905C24.0325 18.7368 23.8529 18.944 24.1113 19.4438C24.3873 19.9721 24.5669 20.545 24.821 21.0855C24.9524 21.3699 24.9218 21.5365 24.6107 21.7072C23.3666 22.3939 23.371 22.402 23.9624 23.6576C23.9712 23.6739 23.9799 23.6942 23.9931 23.7105C24.2647 24.1778 23.7828 24.1737 23.5462 24.2915C23.2221 24.4582 23.1695 24.2428 23.1082 24.003C22.8541 22.9303 22.5737 21.8616 22.3197 20.7848C21.7896 18.562 21.2771 16.3352 21.0624 14.0556C20.9441 12.8203 20.8258 11.5728 20.2651 10.4188C19.8402 10.0734 19.4897 9.67923 19.297 9.26882C19.1831 9.01688 19.0385 8.78526 18.8808 8.56177C18.6443 8.30577 18.3946 8.0579 18.1405 7.82628C18.0397 7.76939 17.939 7.70844 17.8426 7.64748C17.663 7.6678 17.479 7.63529 17.2644 7.54996C14.763 6.55847 12.2266 6.61536 9.70334 7.44837C9.25213 7.59872 9.00681 7.57028 8.68265 7.22894C6.50984 4.95339 3.94715 3.18983 0.810591 2.19834C0.574035 2.1252 0.298053 1.95047 0.0921618 2.13332C-0.144394 2.34463 0.127207 2.57218 0.232343 2.76723C1.66044 5.5304 3.85515 7.63123 6.68506 9.17942C6.98295 9.34196 7.14503 9.49637 6.93038 9.82552C6.73325 10.1303 6.6763 10.4879 6.58869 10.8333C6.32147 11.8613 6.45727 12.9747 5.89654 13.9337C5.36648 14.8439 5.61618 15.6404 6.15938 16.4246C6.42222 16.8066 6.70258 17.1804 7.07056 17.4811C7.42978 17.7737 7.45168 18.0338 7.1976 18.4401C6.16376 20.098 5.92283 21.8535 7.00047 23.5398C7.55243 24.4053 7.605 25.1042 7.03113 25.9007C6.99609 25.9495 6.97857 26.0063 6.95228 26.0632C6.52298 26.9531 6.47479 27.843 7.20198 28.607C7.74518 29.1799 8.1482 29.6879 7.40349 30.3583C7.3334 30.4193 7.32026 30.5371 7.28959 30.6306C7.20636 30.8825 7.15817 31.1426 7.40787 31.3417C7.66633 31.5489 7.95983 31.5124 8.23582 31.3661C8.8053 31.0613 9.36165 30.7362 9.85666 30.3299C10.0012 30.2121 10.1283 30.1023 10.3473 30.0942C11.4687 30.0414 12.5946 30.0739 13.5058 29.9276C14.6754 29.9073 15.5734 30.2771 16.5197 30.3624C17.0848 30.4112 17.3695 30.5249 17.0891 31.1101C16.984 31.3295 16.9183 31.6343 17.203 31.8131C17.4922 31.9959 17.8295 32.0813 18.1624 31.8984C18.491 31.7196 18.8195 31.5368 19.113 31.3133C19.6518 30.9028 20.1206 30.3949 20.6988 30.0455C22.2671 29.0987 22.9461 27.6805 23.2265 26.0632C23.3009 25.6406 23.4236 25.4212 23.8529 25.3196C24.0588 25.2708 24.2471 25.1774 24.4487 25.1124C25.6665 24.6898 25.6796 24.6857 25.1715 23.5479C25.0269 23.2269 25.1101 23.0928 25.4343 22.975C25.8899 22.8124 26.3236 22.6011 26.7792 22.4427C27.1953 22.3004 27.2567 22.0526 27.1296 21.699C26.9588 21.2155 26.8142 20.7197 26.6302 20.2362C26.512 19.9233 26.6215 19.7526 26.9413 19.651C27.502 19.4763 28.0583 19.2813 28.6234 19.1106C28.987 19.0009 29.0703 18.814 28.9564 18.4808C28.7636 17.92 28.5928 17.3552 28.4088 16.7903L28.4044 16.7944Z" fill="#3B4CCA"/>
<path d="M21.3426 3.36255V8.50287H26.6739V9.81537H21.3426V15.0004H19.8313V9.81537H14.5V8.50287H19.8313V3.36255H21.3426Z" fill="white" stroke="white" stroke-width="3" stroke-linecap="round" stroke-linejoin="round"/>
<path d="M21.3426 3.36255V8.50287H26.6739V9.81537H21.3426V15.0004H19.8313V9.81537H14.5V8.50287H19.8313V3.36255H21.3426Z" fill="#3B4CCA"/>
</g>
<defs>
<clipPath id="clip0_1_11">
<rect width="29" height="32" fill="white"/>
</clipPath>
</defs>
</svg>
