<svg width="522" height="12" viewBox="0 0 522 12" fill="none" xmlns="http://www.w3.org/2000/svg">
<path d="M0.666667 6C0.666667 8.94552 3.05448 11.3333 6 11.3333C8.94552 11.3333 11.3333 8.94552 11.3333 6C11.3333 3.05448 8.94552 0.666667 6 0.666667C3.05448 0.666667 0.666667 3.05448 0.666667 6ZM510.667 6C510.667 8.94552 513.054 11.3333 516 11.3333C518.945 11.3333 521.333 8.94552 521.333 6C521.333 3.05448 518.945 0.666667 516 0.666667C513.054 0.666667 510.667 3.05448 510.667 6ZM6 7H516V5H6V7Z" fill="#C29800"/>
</svg>
