<svg width="16" height="17" viewBox="0 0 16 17" fill="none" xmlns="http://www.w3.org/2000/svg">
<g clip-path="url(#clip0_8_282)">
<path d="M9.75006 0.477387C10.3885 1.11586 10.3885 2.15412 9.75006 2.79259L5.60299 6.93965C4.73777 7.80487 4.73777 9.20115 5.60299 10.0604L9.75006 14.2075C10.3885 14.8459 10.3885 15.8842 9.75006 16.5227C9.11159 17.1611 8.07333 17.1611 7.43486 16.5227L0.411696 9.4995C-0.137269 8.95054 -0.137269 8.05548 0.411696 7.50652L7.43486 0.477387C8.07333 -0.161082 9.11159 -0.161082 9.75006 0.477387V0.477387Z" fill="black"/>
<path d="M15.4784 3.7294C16.1169 4.36787 16.1169 5.40613 15.4784 6.0446L14.1418 7.38121C13.5212 8.00178 13.5212 9.00423 14.1418 9.6248L15.4784 10.9614C16.1169 11.5999 16.1169 12.6381 15.4784 13.2766C14.8399 13.9151 13.8017 13.9151 13.1632 13.2766L9.39204 9.50546C8.84308 8.9565 8.84308 8.06145 9.39204 7.51248L13.1632 3.7294C13.8017 3.09093 14.8399 3.09093 15.4784 3.7294V3.7294Z" fill="black"/>
</g>
<defs>
<clipPath id="clip0_8_282">
<rect width="17" height="15.9558" fill="white" transform="translate(15.9557) rotate(90)"/>
</clipPath>
</defs>
</svg>
