<svg width="32" height="29" viewBox="0 0 32 29" fill="none" xmlns="http://www.w3.org/2000/svg">
<g clip-path="url(#clip0_1_50)">
<path d="M31.9996 15.0455C31.8559 15.7403 31.8399 16.443 31.6962 17.1378C31.0653 20.1006 29.6517 22.6162 27.4316 24.6607C25.1396 26.7849 22.4164 28.0068 19.3098 28.3582C18.8387 28.4141 18.3675 28.4301 17.8963 28.454C16.8661 28.5019 15.8758 27.5596 15.8918 26.5534C15.9158 25.4593 16.7224 24.6447 17.8723 24.6287C20.8352 24.5888 23.3508 23.4787 25.3712 21.3385C27.0403 19.5656 28.0066 17.4413 28.1663 14.9816C28.382 11.6275 27.216 8.81639 24.7803 6.54836C23.239 5.11886 21.3942 4.25637 19.3018 3.94492C16.7463 3.56159 14.3745 4.08068 12.2103 5.45427C10.5332 6.50843 9.24744 7.9539 8.37696 9.75076C8.2971 9.91048 8.23322 10.0862 8.16933 10.2539C8.15336 10.2858 8.16933 10.3337 8.16134 10.4455C8.82418 10.1421 9.44709 9.86256 10.078 9.58305C10.4693 9.40736 10.8686 9.23965 11.3238 9.31951C12.2582 9.48722 12.8412 10.0862 12.9689 11.0046C13.0727 11.7552 12.6016 12.6018 11.8269 12.9611C10.3415 13.6559 8.84814 14.3267 7.35475 15.0056C6.8117 15.2531 6.26067 15.4847 5.71762 15.7243C4.65548 16.1875 3.69715 15.8681 3.19403 14.8458C2.38745 13.2007 1.6128 11.5396 0.822185 9.88652C0.606562 9.4393 0.374967 8.99208 0.183303 8.52889C-0.247943 7.50668 0.0954565 6.48447 0.989891 6.02128C1.93224 5.53414 3.02633 5.86955 3.52945 6.8119C3.80896 7.33898 4.05652 7.88203 4.32006 8.42508C4.38395 8.55285 4.39992 8.76049 4.5836 8.76847C4.73534 8.76847 4.7593 8.57681 4.8152 8.45702C5.58186 6.76398 6.63601 5.29455 7.97766 3.99283C9.57487 2.44354 11.4276 1.3255 13.5519 0.678633C17.2894 -0.463369 20.939 -0.183858 24.381 1.65293C28.6375 3.92894 31.1371 7.51467 31.8718 12.3063C31.9198 12.6337 31.8798 12.9771 32.0156 13.2886V15.0375L31.9996 15.0455Z" fill="#0286AF"/>
</g>
<path d="M0.632812 17.543H2.03125C2.61719 17.543 3.0651 17.6706 3.375 17.9258C3.6849 18.1784 3.83984 18.5208 3.83984 18.9531C3.83984 19.5833 3.49349 20.026 2.80078 20.2812C2.98047 20.3672 3.22266 20.6445 3.52734 21.1133L4.76172 23H4.26562L3.3125 21.5039C2.99479 21.0039 2.7474 20.6927 2.57031 20.5703C2.39323 20.4453 2.13411 20.3828 1.79297 20.3828H1.05469V23H0.632812V17.543ZM1.05469 17.8945V20.0312H1.96094C2.42188 20.0312 2.77344 19.9388 3.01562 19.7539C3.26042 19.5664 3.38281 19.3021 3.38281 18.9609C3.38281 18.625 3.25911 18.3633 3.01172 18.1758C2.76432 17.9883 2.40885 17.8945 1.94531 17.8945H1.05469ZM8.60313 17.543V17.8945H6.04844V20.0781H8.53672V20.4336H6.04844V22.6484H8.66563V23H5.62656V17.543H8.60313ZM12.507 17.8164V18.2812C12.0331 18.0026 11.6255 17.8633 11.2844 17.8633C10.9563 17.8633 10.6815 17.9635 10.4602 18.1641C10.2414 18.362 10.132 18.6081 10.132 18.9023C10.132 19.1133 10.1971 19.3034 10.3273 19.4727C10.4576 19.6419 10.7297 19.8047 11.1438 19.9609C11.5578 20.1172 11.8599 20.2474 12.05 20.3516C12.2401 20.4557 12.4016 20.6068 12.5344 20.8047C12.6672 21.0026 12.7336 21.2591 12.7336 21.5742C12.7336 21.9935 12.5799 22.3477 12.2727 22.6367C11.9654 22.9258 11.5904 23.0703 11.1477 23.0703C10.6945 23.0703 10.2284 22.9115 9.74922 22.5938V22.0977C10.2779 22.4857 10.7362 22.6797 11.1242 22.6797C11.4471 22.6797 11.7193 22.5755 11.9406 22.3672C12.1646 22.1562 12.2766 21.8984 12.2766 21.5938C12.2766 21.362 12.2076 21.1536 12.0695 20.9688C11.9315 20.7812 11.6516 20.6068 11.2297 20.4453C10.8078 20.2839 10.5057 20.1536 10.3234 20.0547C10.1438 19.9557 9.9901 19.8151 9.8625 19.6328C9.7375 19.4479 9.675 19.2109 9.675 18.9219C9.675 18.5208 9.82865 18.1797 10.1359 17.8984C10.4432 17.6146 10.813 17.4727 11.2453 17.4727C11.6698 17.4727 12.0904 17.5872 12.507 17.8164ZM17.0828 17.543V17.8945H14.5281V20.0781H17.0164V20.4336H14.5281V22.6484H17.1453V23H14.1062V17.543H17.0828ZM22.3383 17.543V17.8945H20.2914V23H19.8656V17.8945H17.8188V17.543H22.3383Z" fill="#0286AF"/>
<defs>
<clipPath id="clip0_1_50">
<rect width="32" height="28.4622" fill="white"/>
</clipPath>
</defs>
</svg>
