<svg class="svg-icon" style="width: 1em; height: 1em;vertical-align: middle;fill: currentColor;overflow: hidden;" viewBox="0 0 1024 1024" version="1.1" xmlns="http://www.w3.org/2000/svg"><path d="M10.750656 1013.12136c-13.822272-13.822272-13.822272-36.347457 0-50.169729l952.200975-952.200975c13.822272-13.822272 36.347457-13.822272 50.169729 0 13.822272 13.822272 13.822272 36.347457 0 50.169729l-952.200975 952.200975c-14.334208 14.334208-36.347457 14.334208-50.169729 0z" fill="" /><path d="M10.750656 10.750656c13.822272-13.822272 36.347457-13.822272 50.169729 0L1013.633296 963.463567c13.822272 13.822272 13.822272 36.347457 0 50.169729-13.822272 13.822272-36.347457 13.822272-50.169729 0L10.750656 60.920385c-14.334208-14.334208-14.334208-36.347457 0-50.169729z" fill="" /></svg>