<svg width="16" height="17" viewBox="0 0 16 17" fill="none" xmlns="http://www.w3.org/2000/svg">
<g clip-path="url(#clip0_8_279)">
<path d="M6.20569 16.5226C5.56722 15.8841 5.56722 14.8459 6.20569 14.2074L10.3528 10.0603C11.218 9.19513 11.218 7.79885 10.3528 6.9396L6.20569 2.79253C5.56722 2.15406 5.56722 1.1158 6.20569 0.477333C6.84416 -0.161137 7.88241 -0.161137 8.52088 0.477333L15.544 7.5005C16.093 8.04946 16.093 8.94452 15.544 9.49348L8.52088 16.5226C7.88241 17.1611 6.84416 17.1611 6.20569 16.5226V16.5226Z" fill="black"/>
<path d="M0.477361 13.2706C-0.161109 12.6321 -0.161109 11.5939 0.477361 10.9554L1.81397 9.61879C2.43454 8.99822 2.43454 7.99577 1.81397 7.3752L0.477361 6.03859C-0.161109 5.40012 -0.161109 4.36186 0.477361 3.72339C1.11583 3.08492 2.15409 3.08492 2.79256 3.72339L6.56371 7.49454C7.11267 8.0435 7.11267 8.93855 6.56371 9.48752L2.79256 13.2706C2.15409 13.9091 1.11583 13.9091 0.477361 13.2706V13.2706Z" fill="black"/>
</g>
<defs>
<clipPath id="clip0_8_279">
<rect width="17" height="15.9558" fill="white" transform="translate(0 17) rotate(-90)"/>
</clipPath>
</defs>
</svg>
