<svg width="29" height="29" viewBox="0 0 29 29" fill="none" xmlns="http://www.w3.org/2000/svg">
<g clip-path="url(#clip0_1_26)">
<path d="M16.9611 7.85145C17.1926 8.56613 17.3134 9.32108 17.3134 10.1062C17.3134 14.1326 14.0822 17.394 10.0961 17.394C6.11002 17.394 2.87885 14.1326 2.87885 10.1062C2.87885 6.07984 5.93889 2.13399 11.4953 2.76814" stroke="#0286AF" stroke-width="0.72" stroke-miterlimit="10"/>
<path d="M12.9045 3.33183C13.9514 3.77473 14.8775 4.46929 15.5921 5.31483" stroke="#0286AF" stroke-width="0.72" stroke-miterlimit="10"/>
<path d="M21.0177 19.1756L18.3502 16.488L16.5887 18.2596L19.2562 20.9473L21.0177 19.1756Z" stroke="#0286AF" stroke-width="0.72" stroke-miterlimit="10"/>
<path d="M10.2471 20.3332C15.7063 20.3332 20.1319 15.8626 20.1319 10.3478C20.1319 4.83301 15.7063 0.362381 10.2471 0.362381C4.78793 0.362381 0.362366 4.83301 0.362366 10.3478C0.362366 15.8626 4.78793 20.3332 10.2471 20.3332Z" stroke="#0286AF" stroke-width="0.72" stroke-miterlimit="10"/>
<path d="M27.7719 24.1381L21.9941 18.2999L18.2999 22.0243L24.0777 27.8625C25.0742 28.8691 26.6747 28.8993 27.6511 27.9129L27.8223 27.7418C28.7987 26.7553 28.7685 25.1447 27.7719 24.1381V24.1381Z" stroke="#0286AF" stroke-width="0.72" stroke-miterlimit="10"/>
</g>
<defs>
<clipPath id="clip0_1_26">
<rect width="28.8993" height="29" fill="white"/>
</clipPath>
</defs>
</svg>
