<svg width="12" height="166" viewBox="0 0 12 166" fill="none" xmlns="http://www.w3.org/2000/svg">
<path d="M0.666667 6C0.666667 8.94552 3.05448 11.3333 6 11.3333C8.94552 11.3333 11.3333 8.94552 11.3333 6C11.3333 3.05448 8.94552 0.666667 6 0.666667C3.05448 0.666667 0.666667 3.05448 0.666667 6ZM0.666667 160.5C0.666667 163.446 3.05448 165.833 6 165.833C8.94552 165.833 11.3333 163.446 11.3333 160.5C11.3333 157.554 8.94552 155.167 6 155.167C3.05448 155.167 0.666667 157.554 0.666667 160.5ZM5 6V160.5H7V6H5Z" fill="#C29800"/>
</svg>
